:SAMPLES-PER-SECOND 30
:FULLY-SPECIFIED
:DEGREES
539
root  12.4494 40.58 7.54135 10.7393 75.3842 11.2418
RightUpLeg  -9.60379 -8.21642 -8.36191
RightLeg  9.45211 3.26367 1.01987
RightFoot  2.07261 -0.145201 1.36814
RightToes  0.000481921 0.542163 -0.142578
Spine  11.768 -1.12918 0.597392
Spine1  0.718115 -1.41927 1.35911
HEad  13.3543 20.2379 -3.11638
LeftShoulder1  6.52113 -11.9189 -36.1752
LeftArm  -30.7191 19.3411 -37.4018
LeftForeArm  155.972 -49.4364 -167.618
LeftHand  -0.25398 0.0180481 5.50724
RightShoulder  3.87719 7.3409 29.7889
RightArm  13.3695 7.13857 53.9367
RightForeArm  170.433 65.6143 158.429
RightHand  -0.131395 -1.27634 -3.46475
LeftUpLeg  -1.49969 7.5352 3.36811
LeftLeg  5.84718 29.6674 -3.4405
LeftFoot  -0.827429 0.183357 -1.94031
LeftToes  1.06247e-005 4.65869e-005 -8.65511e-006
540
root  12.1755 40.5629 7.65564 12.6896 79.0176 13.6583
RightUpLeg  -8.59918 -9.20185 -8.38509
RightLeg  9.51655 0.624526 1.25904
RightFoot  1.89452 -0.141859 1.33245
RightToes  0.000481921 0.542163 -0.142578
Spine  13.4817 -3.5464 -7.75119
Spine1  0.358392 -6.90108 12.7009
HEad  12.2527 26.9793 -5.98569
LeftShoulder1  5.73378 -11.4017 -32.3881
LeftArm  -32.6667 7.01852 -32.1565
LeftForeArm  150.655 -62.404 -157.863
LeftHand  -0.25398 0.0180481 5.50724
RightShoulder  3.8153 7.47137 28.7726
RightArm  15.6004 8.08945 54.1413
RightForeArm  170.163 66.139 157.893
RightHand  -0.150161 -0.644141 -3.56066
LeftUpLeg  -2.55079 8.50123 3.82841
LeftLeg  7.17525 25.1448 -2.71879
LeftFoot  -0.309736 0.135259 -1.38191
LeftToes  1.06247e-005 4.65869e-005 -8.65511e-006
541
root  11.7823 40.5108 7.82404 4.05365 85.3351 5.42749
RightUpLeg  -7.18739 -11.0434 -8.48999
RightLeg  9.66022 -3.71395 1.96211
RightFoot  1.43316 -0.160872 1.52509
RightToes  0.000481921 0.542163 -0.142578
Spine  16.6583 -5.53074 -15.0438
Spine1  -1.12961 -11.8059 23.2571
HEad  12.5101 30.0684 -6.60971
LeftShoulder1  4.88983 -11.4685 -26.585
LeftArm  -35.0713 -12.2802 -26.2885
LeftForeArm  79.7836 -76.7865 -80.4301
LeftHand  -0.25398 0.0180481 5.50724
RightShoulder  3.52206 6.73502 28.3995
RightArm  16.0564 7.81554 52.418
RightForeArm  168.953 65.2993 158.555
RightHand  -0.172472 -0.54357 -4.04731
LeftUpLeg  -4.68251 10.4153 4.22711
LeftLeg  9.12414 17.2096 -1.65387
LeftFoot  0.122485 0.0823537 -0.827802
LeftToes  1.06247e-005 4.65869e-005 -8.65511e-006
542
root  11.3684 40.4252 7.98512 153.804 87.3525 154.81
RightUpLeg  -6.58294 -12.8687 -8.57127
RightLeg  10.0149 -8.93886 2.6288
RightFoot  0.857144 -0.200435 1.93046
RightToes  0.000481921 0.542163 -0.142578
Spine  19.6792 -7.02004 -20.0906
Spine1  -2.76785 -15.4929 31.2747
HEad  13.0772 30.3023 -5.26645
LeftShoulder1  4.31568 -13.6202 -18.7309
LeftArm  -37.8173 -32.147 -19.6687
LeftForeArm  11.2824 -40.0811 -5.83226
LeftHand  -0.25398 0.0180481 5.50724
RightShoulder  3.08166 5.64162 27.6643
RightArm  14.7546 6.48581 50.608
RightForeArm  167.526 63.8854 159.675
RightHand  -0.191426 -0.49793 -4.46451
LeftUpLeg  -8.07031 11.5735 3.90763
LeftLeg  11.0066 9.23692 -0.713252
LeftFoot  0.583893 0.0554377 -0.56293
LeftToes  1.06247e-005 4.65869e-005 -8.65511e-006
543
root  11.0716 40.3592 8.06663 -176.089 82.9183 -176.176
RightUpLeg  -7.35244 -13.9978 -8.64524
RightLeg  10.5077 -12.4456 2.82908
RightFoot  0.548418 -0.236303 2.30288
RightToes  0.000481921 0.542163 -0.142578
Spine  22.2198 -8.05997 -23.1123
Spine1  -4.73591 -17.7474 36.4122
HEad  12.3998 30.7489 -4.75804
LeftShoulder1  3.54124 -15.6362 -11.2093
LeftArm  -35.6328 -42.3324 -12.1612
LeftForeArm  9.29756 -9.08501 -1.43429
LeftHand  -0.25398 0.0180481 5.50724
RightShoulder  2.75299 5.0509 26.1121
RightArm  13.8276 4.58011 50.323
RightForeArm  167.656 63.3723 160.114
RightHand  -0.205175 0.218568 -4.29468
LeftUpLeg  -10.9922 10.8963 3.20238
LeftLeg  11.6588 5.59322 -0.531524
LeftFoot  1.11281 0.056633 -0.587844
LeftToes  1.06247e-005 4.65869e-005 -8.65511e-006
544
root  11.0073 40.3979 8.02292 172.746 83.7742 171.455
RightUpLeg  -8.83019 -13.7367 -8.81039
RightLeg  10.1056 -11.9561 2.80986
RightFoot  1.03404 -0.258515 2.44958
RightToes  0.000481921 0.542163 -0.142578
Spine  23.2529 -8.0869 -24.1297
Spine1  -6.59116 -17.6534 37.3708
HEad  11.2034 32.1719 -6.06936
LeftShoulder1  2.6927 -14.0719 -7.78749
LeftArm  -32.7975 -40.9177 -11.1311
LeftForeArm  11.4684 -11.4182 -3.23908
LeftHand  -0.25398 0.0180481 5.50724
RightShoulder  2.6882 5.16472 24.8859
RightArm  14.3697 2.03661 50.6777
RightForeArm  169.228 63.862 159.867
RightHand  -0.184261 0.865104 -3.5105
LeftUpLeg  -11.3639 9.74911 2.96564
LeftLeg  10.1328 7.88954 -1.33112
LeftFoot  1.62482 0.0529882 -0.585207
LeftToes  1.06247e-005 4.65869e-005 -8.65511e-006
545
root  11.1906 40.5218 7.85834 159.89 89.5006 158.043
RightUpLeg  -9.73429 -11.9763 -8.98198
RightLeg  8.34031 -8.08228 2.94127
RightFoot  2.14771 -0.301532 2.67012
RightToes  0.000481921 0.542163 -0.142578
Spine  21.8692 -6.83363 -22.1968
Spine1  -7.17034 -14.9182 32.9238
HEad  11.0705 32.6084 -7.45152
LeftShoulder1  2.30571 -10.462 -9.16797
LeftArm  -34.3961 -32.1854 -18.7538
LeftForeArm  20.5521 -40.2124 -8.91836
LeftHand  -0.25398 0.0180481 5.50724
RightShoulder  2.8694 5.61551 25.3504
RightArm  14.9054 -1.82451 49.6229
RightForeArm  169.764 64.0141 159.793
RightHand  -0.143826 0.271929 -2.99906
LeftUpLeg  -8.97696 7.97907 3.49643
LeftLeg  7.03696 15.4842 -2.95963
LeftFoot  1.82048 0.0473841 -0.503877
LeftToes  1.06247e-005 4.65869e-005 -8.65511e-006
546
root  11.5439 40.6341 7.61642 21.9041 83.0285 20.2502
RightUpLeg  -9.46251 -10.1497 -8.91659
RightLeg  5.9709 -3.09779 3.07474
RightFoot  3.20797 -0.418596 3.44605
RightToes  0.000481921 0.542163 -0.142578
Spine  18.9345 -5.18888 -17.0993
Spine1  -5.89433 -11.1676 24.8358
HEad  11.6148 31.7437 -8.09957
LeftShoulder1  2.71894 -9.3678 -14.0844
LeftArm  -32.1484 -17.6163 -27.3096
LeftForeArm  48.4467 -73.4308 -39.9354
LeftHand  -0.25398 0.0180481 5.50724
RightShoulder  3.20595 6.16913 27.0991
RightArm  14.4147 -6.2558 47.1694
RightForeArm  168.717 63.287 160.289
RightHand  -0.139829 -0.867999 -3.42977
LeftUpLeg  -5.72055 6.90801 3.95611
LeftLeg  4.27954 23.1904 -4.37097
LeftFoot  1.4559 0.065998 -0.668201
LeftToes  1.06247e-005 4.65869e-005 -8.65511e-006
547
root  11.9726 40.6999 7.35585 9.07782 77.7132 7.70398
RightUpLeg  -8.65172 -9.21889 -8.64423
RightLeg  3.75661 1.21576 2.99647
RightFoot  3.95981 -0.604279 4.69797
RightToes  0.000481921 0.542163 -0.142578
Spine  16.1469 -4.21789 -11.1046
Spine1  -3.64881 -8.29031 16.7276
HEad  10.9932 31.5747 -8.98938
LeftShoulder1  3.89099 -10.1361 -22.1909
LeftArm  -28.937 1.31996 -30.5483
LeftForeArm  156.177 -72.2098 -149.259
LeftHand  -0.25398 0.0180481 5.50724
RightShoulder  3.4889 6.6192 28.4758
RightArm  14.0258 -9.46495 45.483
RightForeArm  168.937 62.6095 160.852
RightHand  -0.15643 -0.934478 -3.9179
LeftUpLeg  -3.30626 7.35292 4.03266
LeftLeg  2.97742 27.8913 -4.8577
LeftFoot  0.691065 0.108172 -1.06853
LeftToes  1.06247e-005 4.65869e-005 -8.65511e-006
548
root  12.4055 40.7074 7.11993 6.38867 73.5433 5.24963
RightUpLeg  -8.18518 -8.7937 -8.42678
RightLeg  2.68536 4.67225 2.78836
RightFoot  4.27841 -0.751284 5.69008
RightToes  0.000481921 0.542163 -0.142578
Spine  14.4906 -3.74046 -5.96613
Spine1  -1.96492 -6.20436 9.86664
HEad  9.24553 32.1038 -9.68364
LeftShoulder1  4.97416 -9.49205 -32.3346
LeftArm  -26.9317 20.2633 -30.6761
LeftForeArm  172.404 -54.3188 -167.05
LeftHand  -0.25398 0.0180481 5.50724
RightShoulder  3.38242 6.2767 28.5795
RightArm  14.3953 -11.7386 46.0038
RightForeArm  171.663 62.4014 161.278
RightHand  -0.15657 -0.346119 -3.54435
LeftUpLeg  -1.85837 7.64762 4.00674
LeftLeg  3.14067 31.5687 -4.74141
LeftFoot  -0.398684 0.142735 -1.46514
LeftToes  1.06247e-005 4.65869e-005 -8.65511e-006
549
root  12.7717 40.6767 6.96745 5.41486 70.803 4.69843
RightUpLeg  -8.17767 -8.55385 -8.42794
RightLeg  3.26442 7.06736 2.54878
RightFoot  4.00701 -0.734059 5.64429
RightToes  0.000481921 0.542163 -0.142578
Spine  13.438 -2.91608 -1.62845
Spine1  -1.01591 -3.86599 3.65166
HEad  8.76666 30.5491 -8.34993
LeftShoulder1  5.2765 -7.93171 -39.8142
LeftArm  -24.6399 32.3113 -33.1041
LeftForeArm  170.153 -48.1827 -168.776
LeftHand  -0.25398 0.0180481 5.50724
RightShoulder  2.86497 4.8532 28.2782
RightArm  14.096 -15.5237 47.5905
RightForeArm  173.626 61.6441 162.016
RightHand  -0.151248 -0.345852 -3.42984
LeftUpLeg  -0.879091 7.90736 3.83427
LeftLeg  4.0478 33.8919 -4.39961
LeftFoot  -1.40823 0.149917 -1.62553
LeftToes  1.06247e-005 4.65869e-005 -8.65511e-006
550
root  12.9987 40.6468 6.95661 5.5802 71.3747 5.43585
RightUpLeg  -7.98648 -8.39668 -8.59592
RightLeg  4.90464 6.62421 2.11268
RightFoot  3.12547 -0.567902 4.6332
RightToes  0.000481921 0.542163 -0.142578
Spine  12.031 -1.88135 1.24167
Spine1  0.0378903 -1.84016 -0.235153
HEad  10.5321 26.1966 -5.74724
LeftShoulder1  5.28555 -7.4851 -41.6837
LeftArm  -21.7225 36.6498 -38.5717
LeftForeArm  166.171 -51.5181 -166.985
LeftHand  -0.25398 0.0180481 5.50724
RightShoulder  2.38516 3.3666 28.7166
RightArm  12.0796 -21.3858 48.4125
RightForeArm  172.846 59.8774 163.148
RightHand  -0.180648 -0.504745 -4.21243
LeftUpLeg  -0.508363 7.97758 3.67021
LeftLeg  5.20253 33.1742 -3.92599
LeftFoot  -1.92183 0.135961 -1.5102
LeftToes  1.06247e-005 4.65869e-005 -8.65511e-006
